# xmcd
#
# Track frame offsets: 
#        150
#        16169
#        27743
#        47287
#        68555
#        83481
#        98178
#        112194
#        133163
#        150804
#        163640
#        180550
#        199155
#        213223
#
# Disc length: 3155 seconds
#
# Revision: 0
# Processed by: cddbd v1.5.2PL0 Copyright (c) Steve Scherf et al.
# Submitted via: ExactAudioCopy v1.3
#
DISCID=ab0c510e
DTITLE=Casey James - Strip It Down
DYEAR=1900
DGENRE=Blues
TTITLE0=All I Need
TTITLE1=Bulletproof (with Delbert McClinton)
TTITLE2=Hard Times, Heartaches and Scars
TTITLE3=Hurt Me More
TTITLE4=I Got to Go
TTITLE5=Messin' Around
TTITLE6=Strip It All Down
TTITLE7=Need Your Love So Bad
TTITLE8=Different Kind of Love
TTITLE9=Supernatural
TTITLE10=Killin' Myself
TTITLE11=Makin' Up
TTITLE12=Stupid Crazy (with Donnie Bishop)
TTITLE13=Fight You For the Blues
EXTD=
EXTT0=
EXTT1=
EXTT2=
EXTT3=
EXTT4=
EXTT5=
EXTT6=
EXTT7=
EXTT8=
EXTT9=
EXTT10=
EXTT11=
EXTT12=
EXTT13=
PLAYORDER=
